<?xml version="1.0" standalone="no"?>
<!DOCTYPE svg PUBLIC "-//W3C//DTD SVG 20010904//EN"
 "http://www.w3.org/TR/2001/REC-SVG-20010904/DTD/svg10.dtd">
<svg version="1.0" xmlns="http://www.w3.org/2000/svg"
 width="8000.000000pt" height="4500.000000pt" viewBox="0 0 8000.000000 4500.000000"
 preserveAspectRatio="xMidYMid meet">

<g transform="translate(0.000000,4500.000000) scale(0.100000,-0.100000)"
fill="#000000" stroke="none">
<path d="M28395 31073 c-1945 -100 -3433 -990 -4140 -2476 -191 -402 -305
-820 -362 -1327 -22 -196 -25 -863 -5 -1065 57 -560 156 -947 342 -1330 351
-722 894 -1239 1765 -1676 314 -158 596 -272 1065 -431 466 -157 867 -275
1405 -413 1024 -263 1614 -462 2096 -706 534 -272 743 -534 790 -992 30 -293
-27 -579 -157 -799 -65 -110 -254 -301 -378 -382 -258 -170 -608 -283 -1016
-331 -295 -34 -741 -30 -1100 11 -627 70 -1194 240 -1775 531 -533 267 -1080
620 -1594 1029 -150 119 -186 143 -196 132 -54 -58 -1798 -2205 -1799 -2214
-2 -26 412 -377 693 -587 314 -235 689 -477 1006 -649 1497 -813 3347 -1187
5040 -1018 493 50 921 139 1361 285 1055 351 1857 962 2359 1798 342 567 520
1141 586 1882 16 180 16 740 0 915 -61 662 -200 1118 -489 1595 -372 615
-1018 1146 -1878 1544 -585 270 -1236 495 -2209 761 -1426 391 -1937 566
-2295 784 -362 221 -528 459 -585 836 -19 123 -19 354 0 461 76 434 421 790
915 943 232 72 451 104 770 113 597 16 1221 -101 1819 -342 536 -216 1119
-529 1696 -913 181 -120 232 -149 241 -140 23 25 1584 2346 1584 2356 0 30
-504 398 -803 586 -1332 839 -2780 1244 -4407 1234 -157 -1 -312 -3 -345 -5z"/>
<path d="M34930 23175 l0 -6635 1520 0 1520 0 0 2723 c0 2715 3 2930 35 3149
95 641 401 1084 920 1334 297 144 609 201 1029 191 361 -8 629 -68 887 -198
191 -95 413 -287 537 -464 131 -186 234 -436 287 -699 57 -281 55 -160 55
-3218 l0 -2818 1520 0 1520 0 0 3278 c0 2131 -4 3326 -10 3417 -63 861 -317
1546 -778 2095 -107 128 -325 337 -450 433 -345 264 -737 449 -1197 566 -590
151 -1383 181 -1965 75 -300 -55 -674 -181 -952 -320 -261 -131 -554 -329
-797 -538 -136 -117 -420 -403 -536 -539 -49 -58 -93 -106 -97 -106 -5 -1 -8
1104 -8 2454 l0 2455 -1520 0 -1520 0 0 -6635z"/>
<path d="M18765 28263 c-1077 -43 -1789 -180 -2775 -535 -364 -131 -939 -372
-940 -393 -1 -8 750 -2494 755 -2503 1 -1 60 21 131 49 558 222 1170 405 1603
479 299 51 562 76 949 91 553 20 953 -22 1314 -141 722 -238 1137 -761 1248
-1575 6 -44 14 -194 17 -334 6 -246 5 -254 -13 -247 -170 68 -541 184 -799
251 -647 168 -1131 222 -1903 212 -416 -5 -576 -16 -902 -63 -1581 -225 -2659
-1000 -3105 -2231 -236 -651 -291 -1555 -139 -2303 103 -505 344 -1019 664
-1420 106 -132 334 -361 465 -466 322 -260 679 -451 1090 -586 249 -81 551
-146 860 -185 202 -26 882 -25 1100 0 708 84 1193 256 1739 614 306 201 596
451 849 733 l77 85 0 -622 0 -623 1475 0 1475 0 0 658 0 657 -107 76 c-131 92
-359 269 -508 394 -129 107 -329 285 -333 294 -1 4 211 269 473 589 l475 582
0 1853 c0 1076 -4 1934 -10 2047 -69 1363 -430 2416 -1102 3215 -90 107 -303
319 -407 404 -687 568 -1621 877 -2846 941 -169 9 -683 11 -870 3z m766 -6623
c454 -35 885 -133 1299 -297 91 -36 191 -78 223 -94 l57 -29 0 -366 c0 -478
-17 -626 -100 -875 -134 -403 -423 -760 -812 -1001 -411 -255 -947 -382 -1538
-365 -357 11 -594 64 -855 192 -545 268 -789 749 -725 1430 14 143 33 236 76
365 200 601 816 976 1714 1043 109 8 538 6 661 -3z"/>
<path d="M49440 27670 c-1404 -79 -2710 -648 -3854 -1678 -65 -59 -162 -141
-215 -182 -151 -119 -190 -196 -139 -278 28 -45 102 -92 145 -92 66 0 106 34
216 185 129 177 560 538 942 790 694 457 1475 760 2305 895 693 112 1391 102
2080 -31 1816 -352 3365 -1521 4184 -3158 334 -668 530 -1345 611 -2116 22
-205 31 -716 16 -930 -55 -807 -242 -1518 -585 -2220 -275 -561 -618 -1055
-1064 -1528 -73 -78 -102 -126 -102 -169 0 -35 44 -93 86 -113 63 -30 101 -11
224 114 217 219 494 563 688 853 537 804 870 1714 976 2668 53 469 45 1033
-20 1510 -264 1930 -1436 3655 -3147 4634 -494 283 -992 494 -1551 657 -500
145 -1219 221 -1796 189z"/>
<path d="M56730 26040 l0 -1230 2676 0 c1623 0 2674 -4 2672 -9 -1 -5 -1246
-1383 -2765 -3061 l-2763 -3052 0 -1074 0 -1074 4660 0 4660 0 0 1230 0 1230
-2780 2 -2779 3 2779 3060 2780 3059 0 1073 0 1073 -4570 0 -4570 0 0 -1230z"/>
<path d="M49545 26910 c-66 -3 -128 -9 -137 -14 -33 -15 -48 -53 -48 -120 0
-54 4 -70 24 -93 l24 -27 373 -2 c360 -1 440 -5 724 -40 178 -21 915 -206
1103 -276 965 -358 1771 -956 2377 -1763 940 -1253 1271 -2923 880 -4440 -164
-634 -470 -1265 -874 -1800 -205 -272 -539 -625 -791 -837 -623 -523 -1335
-891 -2105 -1086 -374 -95 -722 -144 -1127 -158 -258 -9 -296 -29 -285 -147 5
-58 34 -93 91 -108 28 -8 104 -10 231 -6 1554 50 3044 776 4034 1966 729 877
1145 1940 1232 3146 15 207 6 740 -15 935 -75 677 -248 1269 -542 1860 -379
760 -910 1396 -1605 1922 -1032 781 -2250 1153 -3564 1088z"/>
<path d="M48045 25435 c-267 -59 -472 -257 -541 -525 -22 -86 -23 -253 0 -340
80 -315 360 -530 692 -530 324 0 595 214 679 536 19 75 19 250 0 332 -61 258
-278 473 -530 527 -85 18 -219 18 -300 0z m328 -292 c176 -83 289 -289 257
-472 -16 -92 -55 -167 -120 -232 -183 -184 -453 -184 -634 -2 -160 162 -180
392 -48 565 54 71 131 127 217 157 49 18 79 21 160 18 88 -2 108 -6 168 -34z"/>
<path d="M48053 24906 c-73 -34 -106 -87 -111 -176 -3 -52 0 -75 16 -106 39
-76 105 -116 192 -116 125 0 210 86 210 214 0 156 -160 252 -307 184z"/>
<path d="M52843 25071 c-47 -29 -83 -88 -83 -137 0 -58 30 -98 132 -174 104
-78 149 -120 277 -265 499 -561 847 -1209 1031 -1920 254 -980 176 -1987 -222
-2905 -112 -257 -227 -466 -403 -730 -439 -660 -1019 -1177 -1715 -1529 -1540
-779 -3352 -618 -4764 423 -163 119 -339 268 -435 365 -100 103 -125 121 -171
121 -69 0 -140 -74 -140 -145 0 -64 11 -76 333 -358 299 -262 649 -492 1022
-673 835 -404 1793 -560 2720 -443 1295 164 2465 850 3245 1904 860 1163 1146
2623 789 4026 -175 689 -513 1347 -973 1899 -138 166 -483 526 -520 544 -45
21 -84 20 -123 -3z"/>
<path d="M50125 24120 c-525 -54 -1019 -289 -1380 -655 -359 -365 -580 -834
-640 -1359 -11 -92 -7 -381 5 -486 61 -497 270 -938 617 -1300 l105 -110 -30
-52 c-59 -105 -753 -1292 -757 -1297 -17 -16 -320 234 -485 399 -527 525 -842
1180 -921 1910 -16 152 -13 481 5 640 81 685 364 1300 836 1815 91 99 110 130
110 177 0 71 -83 137 -155 124 -123 -23 -528 -564 -743 -992 -227 -451 -342
-933 -342 -1431 0 -367 59 -725 178 -1088 249 -755 682 -1373 1239 -1768 56
-39 102 -75 103 -80 0 -4 -35 -67 -77 -139 -73 -123 -78 -136 -78 -190 l0 -57
-34 20 c-74 44 -269 189 -385 285 -541 453 -953 1061 -1184 1749 -114 338
-167 621 -197 1046 -11 161 -16 196 -32 218 -24 32 -87 54 -130 46 -85 -16
-108 -84 -98 -285 69 -1372 783 -2594 1934 -3313 956 -596 2127 -791 3188
-531 897 219 1710 746 2309 1495 102 128 287 406 375 564 268 481 432 1007
484 1553 17 180 20 657 5 714 -15 54 -51 78 -116 78 -66 0 -98 -12 -119 -44
-14 -21 -17 -67 -19 -318 -4 -378 -27 -587 -97 -863 -217 -866 -692 -1612
-1375 -2159 -875 -701 -1998 -1003 -3069 -825 -223 37 -577 137 -757 213 l-38
16 35 33 c19 17 74 100 123 182 52 87 95 149 103 149 8 -1 77 -20 155 -43 490
-143 1035 -193 1490 -136 655 81 1242 347 1799 814 128 107 299 280 314 318
20 48 6 101 -36 140 -29 28 -42 33 -81 33 -58 0 -71 -8 -197 -130 -618 -595
-1369 -932 -2131 -957 -338 -11 -598 28 -936 142 -174 58 -233 82 -231 92 1 6
480 830 708 1219 l54 91 113 -37 c227 -76 440 -110 693 -110 371 0 668 67 990
224 252 124 429 251 621 448 129 132 186 203 282 351 173 266 288 570 338 897
24 157 25 482 1 635 -40 257 -101 453 -212 680 -139 285 -325 525 -555 717
-323 271 -717 450 -1125 513 -123 19 -429 27 -550 15z m356 -690 c677 -66
1232 -535 1399 -1184 41 -162 54 -283 47 -460 -7 -172 -29 -293 -83 -447 -186
-536 -627 -920 -1194 -1040 -143 -31 -426 -33 -575 -5 -221 41 -461 142 -642
269 -101 71 -287 253 -353 345 -162 225 -263 474 -301 741 -19 133 -6 411 24
541 50 208 122 377 238 550 81 123 290 333 414 417 307 207 680 307 1026 273z"/>
<path d="M49655 22556 c-69 -30 -79 -144 -16 -183 9 -6 384 -176 833 -377 583
-262 826 -366 852 -366 25 0 45 8 68 29 28 25 33 36 33 75 0 35 -6 51 -25 70
-27 26 -1667 766 -1697 766 -10 -1 -31 -7 -48 -14z"/>
<path d="M49307 21989 c-24 -14 -47 -62 -47 -98 0 -65 9 -69 875 -458 615
-275 830 -367 859 -367 30 -1 44 6 67 32 40 44 40 100 2 141 -21 22 -241 125
-845 395 -834 374 -861 384 -911 355z"/>
<path d="M25943 15435 c-131 -29 -247 -115 -300 -223 -24 -50 -28 -68 -28
-147 0 -73 4 -98 22 -130 44 -83 125 -140 306 -215 149 -62 193 -136 124 -205
-84 -84 -263 -70 -398 33 -34 26 -67 51 -74 56 -14 10 -195 -138 -195 -160 0
-21 111 -113 175 -144 82 -40 162 -60 275 -67 238 -15 419 74 498 245 22 47
26 71 27 142 0 76 -3 91 -30 139 -40 72 -111 124 -264 191 -149 66 -191 98
-191 145 0 45 48 101 98 115 90 25 188 3 287 -65 36 -25 69 -45 73 -45 4 0 46
39 92 86 l85 86 -49 43 c-129 115 -339 162 -533 120z"/>
<path d="M30815 15435 c-94 -21 -170 -53 -249 -106 -404 -270 -435 -846 -56
-1032 106 -52 200 -70 330 -63 58 3 127 12 154 21 59 18 166 76 219 118 l39
30 -83 83 c-46 46 -87 84 -91 84 -4 0 -33 -18 -65 -40 -161 -113 -371 -84
-458 64 -135 231 76 604 353 624 108 7 168 -15 251 -93 l68 -64 101 71 c56 39
102 77 102 84 0 25 -124 139 -187 172 -112 59 -288 78 -428 47z"/>
<path d="M34904 15435 c-242 -53 -447 -234 -523 -462 -106 -319 21 -612 310
-714 94 -34 293 -34 399 -1 141 44 277 138 357 245 198 267 195 608 -6 801
-131 124 -337 175 -537 131z m225 -231 c61 -18 132 -78 162 -135 72 -143 18
-375 -118 -500 -74 -66 -143 -98 -231 -106 -136 -11 -239 41 -290 149 -40 82
-47 145 -28 235 20 96 57 172 118 238 108 118 247 161 387 119z"/>
<path d="M42974 15435 c-242 -53 -447 -234 -523 -462 -106 -319 21 -612 310
-714 94 -34 293 -34 399 -1 141 44 277 138 357 245 198 267 195 608 -6 801
-131 124 -337 175 -537 131z m225 -231 c61 -18 132 -78 162 -135 72 -143 18
-375 -118 -500 -74 -66 -143 -98 -231 -106 -136 -11 -239 41 -290 149 -40 82
-47 145 -28 235 20 96 57 172 118 238 108 118 247 161 387 119z"/>
<path d="M50003 15435 c-131 -29 -247 -115 -300 -223 -24 -50 -28 -68 -28
-147 0 -73 4 -98 22 -130 44 -83 125 -140 306 -215 149 -62 193 -136 124 -205
-84 -84 -263 -70 -398 33 -34 26 -67 51 -74 56 -14 10 -195 -138 -195 -160 0
-21 111 -113 175 -144 82 -40 162 -60 275 -67 238 -15 419 74 498 245 22 47
26 71 27 142 0 76 -3 91 -30 139 -40 72 -111 124 -264 191 -149 66 -191 98
-191 145 0 45 48 101 98 115 90 25 188 3 287 -65 36 -25 69 -45 73 -45 4 0 46
39 92 86 l85 86 -49 43 c-129 115 -339 162 -533 120z"/>
<path d="M52494 15435 c-242 -53 -447 -234 -523 -462 -106 -319 21 -612 310
-714 94 -34 293 -34 399 -1 141 44 277 138 357 245 198 267 195 608 -6 801
-131 124 -337 175 -537 131z m225 -231 c61 -18 132 -78 162 -135 72 -143 18
-375 -118 -500 -74 -66 -143 -98 -231 -106 -136 -11 -239 41 -290 149 -40 82
-47 145 -28 235 20 96 57 172 118 238 108 118 247 161 387 119z"/>
<path d="M28317 15408 c-53 -71 -797 -1148 -797 -1153 0 -3 62 -5 138 -5 l137
0 89 135 88 135 251 -2 251 -3 18 -125 c9 -69 17 -128 18 -132 0 -5 61 -8 135
-8 135 0 135 0 130 23 -3 12 -43 267 -90 567 -47 300 -88 557 -91 573 l-6 27
-123 0 -124 0 -24 -32z m98 -459 c14 -96 25 -179 25 -186 0 -10 -37 -13 -155
-13 l-155 0 127 190 c69 105 128 188 130 186 2 -2 15 -82 28 -177z"/>
<path d="M40487 15408 c-53 -71 -797 -1148 -797 -1153 0 -3 62 -5 138 -5 l137
0 89 135 88 135 251 -2 251 -3 18 -125 c9 -69 17 -128 18 -132 0 -5 61 -8 135
-8 135 0 135 0 130 23 -3 12 -43 267 -90 567 -47 300 -88 557 -91 573 l-6 27
-123 0 -124 0 -24 -32z m98 -459 c14 -96 25 -179 25 -186 0 -10 -37 -13 -155
-13 l-155 0 127 190 c69 105 128 188 130 186 2 -2 15 -82 28 -177z"/>
<path d="M26815 15418 c-3 -7 -72 -265 -155 -573 -83 -308 -153 -568 -156
-578 -5 -16 19 -17 443 -15 l448 3 26 95 c15 52 28 103 28 113 1 16 -20 17
-315 17 l-315 0 7 23 c4 12 19 67 34 122 l27 100 275 3 275 2 27 101 c15 56
30 108 33 115 4 12 -40 14 -272 14 -244 0 -276 2 -271 15 3 9 18 63 33 120
l27 105 313 0 312 0 16 58 c39 138 45 160 45 166 0 3 -198 6 -440 6 -343 0
-442 -3 -445 -12z"/>
<path d="M29235 15418 c-3 -7 -72 -265 -155 -573 -83 -308 -153 -568 -156
-577 -5 -17 5 -18 125 -18 l130 0 14 48 c8 26 31 111 52 190 l38 142 96 0 96
0 92 -190 91 -190 146 0 c80 0 146 2 146 5 0 3 -43 91 -96 196 -52 106 -92
195 -87 199 4 4 37 17 72 28 165 55 271 177 291 335 27 222 -89 369 -322 407
-95 15 -567 13 -573 -2z m530 -236 c63 -21 95 -65 95 -129 0 -75 -38 -125
-125 -165 -44 -20 -70 -23 -217 -26 -93 -2 -168 0 -168 4 0 5 19 82 42 171
l43 163 140 0 c105 -1 152 -5 190 -18z"/>
<path d="M31685 15418 c-3 -7 -72 -265 -155 -573 -83 -308 -153 -568 -156
-578 -5 -16 4 -17 127 -15 l132 3 49 180 c27 99 55 204 64 233 l15 52 234 0
c129 0 235 -1 235 -3 0 -1 -29 -107 -63 -235 l-64 -232 131 0 131 0 154 573
c85 314 156 580 159 590 4 16 -7 17 -126 17 l-131 0 -9 -32 c-5 -18 -33 -126
-62 -240 l-54 -208 -233 0 c-166 0 -233 3 -233 11 0 12 108 431 117 455 4 12
-18 14 -126 14 -96 0 -133 -3 -136 -12z"/>
<path d="M33310 15422 c0 -5 54 -165 120 -357 l120 -348 -60 -225 c-33 -123
-60 -228 -60 -233 0 -5 57 -9 129 -9 l128 0 59 220 59 219 305 347 c168 192
313 358 323 371 l18 23 -158 0 -158 -1 -199 -240 c-136 -165 -201 -237 -206
-228 -4 8 -36 116 -71 242 l-63 227 -143 0 c-79 0 -143 -4 -143 -8z"/>
<path d="M35965 15418 c-2 -7 -43 -159 -92 -338 l-88 -325 0 -125 c0 -109 3
-131 23 -174 67 -147 213 -226 417 -226 261 0 440 123 538 370 19 50 185 645
223 803 l6 27 -131 0 c-72 0 -131 -2 -131 -5 0 -27 -197 -733 -215 -773 -52
-114 -134 -178 -240 -189 -150 -16 -248 82 -232 230 4 39 145 592 183 720 5
16 -6 17 -126 17 -96 0 -132 -3 -135 -12z"/>
<path d="M37265 15418 c-3 -7 -72 -265 -155 -573 -83 -308 -153 -568 -156
-577 -5 -17 5 -18 125 -18 l130 0 14 48 c8 26 31 111 52 190 l38 142 96 0 96
0 92 -190 91 -190 146 0 c80 0 146 2 146 5 0 3 -43 91 -96 196 -52 106 -92
195 -87 199 4 4 37 17 72 28 165 55 271 177 291 335 27 222 -89 369 -322 407
-95 15 -567 13 -573 -2z m530 -236 c63 -21 95 -65 95 -129 0 -75 -38 -125
-125 -165 -44 -20 -70 -23 -217 -26 -93 -2 -168 0 -168 4 0 5 19 82 42 171
l43 163 140 0 c105 -1 152 -5 190 -18z"/>
<path d="M38995 15418 c-3 -7 -72 -265 -155 -573 -83 -308 -153 -568 -156
-578 -5 -16 4 -17 127 -15 l132 3 60 228 61 227 283 0 282 0 11 43 c7 23 20
73 31 112 10 38 19 71 19 72 0 2 -126 3 -280 3 -154 0 -280 3 -280 6 0 4 15
62 32 130 l33 124 321 0 321 0 26 99 c15 54 30 106 33 115 6 15 -33 16 -445
16 -352 0 -453 -3 -456 -12z"/>
<path d="M41293 15408 c3 -13 38 -281 78 -595 l73 -573 116 0 117 0 396 595
397 595 -148 0 -148 0 -258 -406 c-142 -223 -260 -403 -262 -401 -2 2 -20 163
-39 358 -19 195 -37 375 -41 402 l-6 47 -140 0 -140 0 5 -22z"/>
<path d="M44035 15418 c-2 -7 -43 -159 -92 -338 l-88 -325 0 -125 c0 -109 3
-131 23 -174 67 -147 213 -226 417 -226 261 0 440 123 538 370 19 50 185 645
223 803 l6 27 -131 0 c-72 0 -131 -2 -131 -5 0 -27 -197 -733 -215 -773 -52
-114 -134 -178 -240 -189 -150 -16 -248 82 -232 230 4 39 145 592 183 720 5
16 -6 17 -126 17 -96 0 -132 -3 -135 -12z"/>
<path d="M45335 15418 c-3 -7 -72 -265 -155 -573 -83 -308 -153 -568 -156
-577 -5 -17 5 -18 125 -18 l130 0 14 48 c8 26 31 111 52 190 l38 142 96 0 96
0 92 -190 91 -190 146 0 c80 0 146 2 146 5 0 3 -43 91 -96 196 -52 106 -92
195 -87 199 4 4 37 17 72 28 165 55 271 177 291 335 27 222 -89 369 -322 407
-95 15 -567 13 -573 -2z m530 -236 c63 -21 95 -65 95 -129 0 -75 -38 -125
-125 -165 -44 -20 -70 -23 -217 -26 -93 -2 -168 0 -168 4 0 5 19 82 42 171
l43 163 140 0 c105 -1 152 -5 190 -18z"/>
<path d="M46560 15393 c-6 -21 -78 -285 -159 -588 l-148 -550 125 -3 c69 -1
129 1 133 5 4 4 75 262 158 573 84 311 154 573 157 583 5 16 -6 17 -125 17
l-130 0 -11 -37z"/>
<path d="M46984 15318 l-30 -113 179 -3 c163 -2 178 -4 173 -20 -11 -39 -246
-924 -246 -928 0 -2 58 -4 130 -4 l129 0 9 33 c5 17 62 231 127 474 l118 443
181 2 181 3 31 113 31 112 -491 0 -492 0 -30 -112z"/>
<path d="M48175 15418 c-3 -7 -72 -265 -155 -573 -83 -308 -153 -568 -156
-578 -5 -16 19 -17 443 -15 l448 3 26 95 c15 52 28 103 28 113 1 16 -20 17
-315 17 l-315 0 7 23 c4 12 19 67 34 122 l27 100 275 3 275 2 27 101 c15 56
30 108 33 115 4 12 -40 14 -272 14 -244 0 -276 2 -271 15 3 9 18 63 33 120
l27 105 313 0 312 0 16 58 c39 138 45 160 45 166 0 3 -198 6 -440 6 -343 0
-442 -3 -445 -12z"/>
<path d="M50875 15418 c-3 -7 -72 -265 -155 -573 -83 -308 -153 -568 -156
-578 -5 -16 4 -17 127 -15 l132 3 49 180 c27 99 55 204 64 233 l15 52 234 0
c129 0 235 -1 235 -3 0 -1 -29 -107 -63 -235 l-64 -232 131 0 131 0 154 573
c85 314 156 580 159 590 4 16 -7 17 -126 17 l-131 0 -9 -32 c-5 -18 -33 -126
-62 -240 l-54 -208 -233 0 c-166 0 -233 3 -233 11 0 12 108 431 117 455 4 12
-18 14 -126 14 -96 0 -133 -3 -136 -12z"/>
<path d="M53565 15418 c-3 -7 -72 -265 -155 -573 -83 -308 -153 -568 -156
-578 -5 -16 4 -17 127 -15 l132 3 46 175 47 175 184 6 c261 8 372 43 487 152
152 143 174 395 47 536 -53 59 -122 95 -219 116 -93 19 -533 22 -540 3z m489
-242 c58 -29 78 -68 74 -142 -5 -79 -36 -122 -115 -161 -54 -26 -68 -28 -202
-32 -119 -3 -143 -1 -139 10 2 8 24 90 49 182 l44 168 125 -3 c98 -2 133 -7
164 -22z"/>
<path d="M17900 14792 l0 -82 98 0 c235 1 6224 108 6227 112 2 2 -1178 12
-2623 21 -1445 10 -2869 20 -3164 24 l-538 6 0 -81z"/>
<path d="M58605 14846 c-1626 -13 -2769 -25 -2675 -29 133 -6 5976 -108 6128
-107 l42 0 0 80 0 80 -327 -2 c-181 0 -1606 -11 -3168 -22z"/>
</g>
</svg>
